<?xml version="1.0" encoding="UTF-8"?>
<svg id="b" data-name="Layer 3" xmlns="http://www.w3.org/2000/svg" width="250" height="250" viewBox="0 0 250 250">
  <g>
    <path d="m68.747,181.691c-.83.992-1.356,1.404-2.297,1.887-1.245.654-2.795.992-4.344.992-2.518,0-4.704-.823-6.254-2.347-1.522-1.525-2.435-3.751-2.435-6.001,0-4.816,3.68-8.373,8.661-8.373,2.712,0,4.871.92,6.669,2.879l-1.162.823c-.83-.798-1.245-1.113-1.799-1.452-1.052-.629-2.407-.992-3.708-.992-4.04,0-7.028,3.025-7.028,7.139,0,4.09,3.016,7.066,7.112,7.066,2.186,0,3.819-.75,5.424-2.517l1.162.895Z"/>
    <path d="m79.095,184.281h-1.577v-16.141h4.732c3.597,0,5.894,1.766,5.894,4.549,0,1.96-1.162,3.533-3.155,4.259-.747.266-1.743.387-3.127.387-.11,0-.36,0-.636-.024l8.274,6.969h-2.158l-8.246-6.969v6.969Zm2.657-8.034c3.099,0,4.787-1.21,4.787-3.484,0-2.251-1.495-3.388-4.4-3.388h-3.044v6.872h2.657Z"/>
    <path d="m99.432,175.497h7.693v1.234h-7.693v6.316h7.693v1.234h-9.271v-16.141h9.271v1.234h-7.693v6.122Z"/>
    <path d="m118.302,180.046l-1.965,4.235h-1.577l7.25-16.141h1.716l7.029,16.141h-1.743l-1.799-4.235h-8.911Zm4.511-10.067l-3.929,8.808h7.776l-3.847-8.808Z"/>
    <path d="m141.849,184.281h-1.577v-14.906h-4.842v-1.234h11.262v1.234h-4.842v14.906Z"/>
    <path d="m156.542,184.281h-1.577v-16.141h1.577v16.141Z"/>
    <path d="m177.627,168.14h1.688l-6.696,16.141h-1.329l-6.586-16.141h1.688l5.562,13.866,5.673-13.866Z"/>
    <path d="m189.082,175.497h7.693v1.234h-7.693v6.316h7.693v1.234h-9.27v-16.141h9.27v1.234h-7.693v6.122Z"/>
  </g>
  <path d="m171.005,108.215c-1.522,0-3.011.14-4.46.393l23.867-42.481h-11.483l-24.576,43.743v-44.325h-10.419v12.497c-4.528-7.554-12.792-12.611-22.239-12.611-8.815,0-16.597,4.405-21.279,11.131-4.671-6.71-12.428-11.112-21.224-11.13-14.311-.03-25.937,11.548-25.966,25.859,0,.121.009.24.01.36,3.181.006,6.361.013,9.542.02-.002-.121-.018-.239-.017-.36.019-9.045,7.366-16.363,16.412-16.344,9.045.019,16.363,7.366,16.344,16.412-.019,9.045-7.386,16.421-16.432,16.402-.025,0-.046,0-.071,0-.001,0-.002,0-.003,0-3.743.008-2.876.007-3.927.037h-12.319v9.756h8.883c0,.011,0,.024.001.035h7.649c9.857,0,16.46,7.11,16.479,16.211.019,9.101-7.344,16.494-16.445,16.513-9.101.019-16.494-7.344-16.513-16.445,0-.122.015-.241.018-.362-3.2.007-6.401.013-9.601.02-.001.121-.011.241-.011.362.03,14.4,11.727,26.049,26.127,26.019,8.751-.018,16.48-4.349,21.195-10.973,4.694,6.621,12.413,10.946,21.147,10.946,11.609,0,21.434-7.635,24.731-18.157,3.292,10.441,13.05,18.013,24.579,18.013,14.232,0,25.769-11.537,25.769-25.769s-11.537-25.769-25.769-25.769Zm-49.31-33.251c9.045,0,16.378,7.333,16.378,16.378s-7.333,16.378-16.378,16.378-16.378-7.333-16.378-16.378,7.333-16.378,16.378-16.378Zm-21.279,31.16c1.777,2.551,3.999,4.769,6.557,6.539-2.45,1.695-4.588,3.805-6.326,6.222-1.765-2.511-3.962-4.694-6.482-6.446,2.427-1.732,4.547-3.867,6.252-6.315Zm21.279,44.238c-8.815,0-15.983-6.969-16.343-15.696.009-.289.021-.577.02-.869,0-.181-.014-.359-.018-.539.382-8.706,7.541-15.652,16.341-15.652,9.045,0,16.378,7.333,16.378,16.378s-7.333,16.378-16.378,16.378Zm14.722-37.699c3.044-2.106,5.609-4.85,7.517-8.033v16.066c-1.908-3.183-4.473-5.927-7.517-8.033Zm34.588,37.973c-9.197,0-16.652-7.455-16.652-16.652s7.455-16.652,16.652-16.652,16.652,7.456,16.652,16.652-7.455,16.652-16.652,16.652Z" fill="#231f20"/>
</svg>