<?xml version="1.0" encoding="UTF-8"?><svg id="Layer_1" xmlns="http://www.w3.org/2000/svg" viewBox="0 0 2485 1080"><defs><style>.cls-1{fill:none;stroke:#000;stroke-miterlimit:10;stroke-width:32px;}</style></defs><path class="cls-1" d="m853,515.5c0,202.69-164.31,367-367,367S119,718.19,119,515.5,283.31,148.5,486,148.5s367,164.31,367,367Zm-366.64,367V148.5m366.64,366.64h-366.64m183.32,306.74v-308.18m-177.55,154.45h177.55m0,153.73l-177.55-153.73"/><g><path d="m1066.24,402.7c-4-5.2-9.07-9.2-15.2-12-6.13-2.8-12.47-4.2-19-4.2-8,0-15.23,1.5-21.7,4.5-6.47,3-12,7.1-16.6,12.3-4.6,5.2-8.17,11.3-10.7,18.3-2.53,7-3.8,14.5-3.8,22.5,0,7.47,1.2,14.53,3.6,21.2,2.4,6.67,5.87,12.54,10.4,17.6,4.53,5.07,10.07,9.07,16.6,12,6.53,2.93,13.93,4.4,22.2,4.4s15.27-1.67,21.4-5c6.13-3.33,11.33-8,15.6-14l16.2,12.2c-1.07,1.47-2.93,3.57-5.6,6.3-2.67,2.73-6.2,5.47-10.6,8.2-4.4,2.73-9.7,5.13-15.9,7.2-6.2,2.07-13.37,3.1-21.5,3.1-11.2,0-21.3-2.13-30.3-6.4s-16.67-9.87-23-16.8c-6.33-6.93-11.17-14.77-14.5-23.5-3.33-8.73-5-17.57-5-26.5,0-10.93,1.8-21.03,5.4-30.3,3.6-9.27,8.63-17.27,15.1-24,6.47-6.73,14.23-11.96,23.3-15.7,9.07-3.73,19.07-5.6,30-5.6,9.33,0,18.5,1.8,27.5,5.4,9,3.6,16.37,9.13,22.1,16.6l-16,12.2Z"/><path d="m1148.44,372.1h49.8c9.07,0,16.53,1.23,22.4,3.7,5.87,2.47,10.5,5.6,13.9,9.4,3.4,3.8,5.77,8.07,7.1,12.8,1.33,4.73,2,9.3,2,13.7s-.8,8.9-2.4,13.1c-1.6,4.2-3.9,8-6.9,11.4s-6.67,6.27-11,8.6c-4.33,2.33-9.17,3.77-14.5,4.3l40.2,64.6h-24l-36-62.4h-21.4v62.4h-19.2v-141.6Zm19.2,62.4h25.2c3.73,0,7.43-.3,11.1-.9,3.67-.6,6.93-1.7,9.8-3.3,2.87-1.6,5.17-3.9,6.9-6.9,1.73-3,2.6-6.9,2.6-11.7s-.87-8.7-2.6-11.7c-1.73-3-4.03-5.3-6.9-6.9-2.87-1.6-6.13-2.7-9.8-3.3-3.67-.6-7.37-.9-11.1-.9h-25.2v45.6Z"/><path d="m1310.64,372.1h19.2v141.6h-19.2v-141.6Z"/><path d="m1435.84,390.1h-45.6v-18h110.4v18h-45.6v123.6h-19.2v-123.6Z"/><path d="m1561.04,372.1h91.4v18h-72.2v42.2h67.2v18h-67.2v45.4h75.8v18h-95v-141.6Z"/><path d="m1723.23,372.1h49.8c9.07,0,16.53,1.23,22.4,3.7,5.87,2.47,10.5,5.6,13.9,9.4,3.4,3.8,5.77,8.07,7.1,12.8,1.33,4.73,2,9.3,2,13.7s-.8,8.9-2.4,13.1c-1.6,4.2-3.9,8-6.9,11.4s-6.67,6.27-11,8.6c-4.33,2.33-9.17,3.77-14.5,4.3l40.2,64.6h-24l-36-62.4h-21.4v62.4h-19.2v-141.6Zm19.2,62.4h25.2c3.73,0,7.43-.3,11.1-.9,3.67-.6,6.93-1.7,9.8-3.3,2.87-1.6,5.17-3.9,6.9-6.9,1.73-3,2.6-6.9,2.6-11.7s-.87-8.7-2.6-11.7c-1.73-3-4.03-5.3-6.9-6.9-2.87-1.6-6.13-2.7-9.8-3.3-3.67-.6-7.37-.9-11.1-.9h-25.2v45.6Z"/><path d="m1885.43,372.1h19.2v141.6h-19.2v-141.6Z"/><path d="m2046.03,517.3c-10.8,0-20.73-1.9-29.8-5.7-9.07-3.8-16.83-9.03-23.3-15.7-6.47-6.67-11.54-14.53-15.2-23.6-3.67-9.07-5.5-18.87-5.5-29.4s1.83-20.33,5.5-29.4c3.67-9.07,8.73-16.93,15.2-23.6,6.46-6.67,14.23-11.9,23.3-15.7,9.07-3.8,19-5.7,29.8-5.7s20.73,1.9,29.8,5.7c9.07,3.8,16.83,9.03,23.3,15.7,6.47,6.67,11.53,14.53,15.2,23.6,3.67,9.07,5.5,18.87,5.5,29.4s-1.83,20.33-5.5,29.4c-3.67,9.07-8.73,16.93-15.2,23.6-6.47,6.67-14.23,11.9-23.3,15.7-9.07,3.8-19,5.7-29.8,5.7Zm0-18c8.13,0,15.46-1.5,22-4.5,6.53-3,12.13-7.03,16.8-12.1,4.67-5.07,8.27-11.03,10.8-17.9,2.53-6.87,3.8-14.17,3.8-21.9s-1.27-15.03-3.8-21.9c-2.53-6.87-6.13-12.83-10.8-17.9-4.67-5.07-10.27-9.1-16.8-12.1-6.54-3-13.87-4.5-22-4.5s-15.47,1.5-22,4.5c-6.54,3-12.13,7.03-16.8,12.1-4.67,5.07-8.27,11.03-10.8,17.9-2.54,6.87-3.8,14.17-3.8,21.9s1.27,15.03,3.8,21.9c2.53,6.87,6.13,12.83,10.8,17.9,4.67,5.07,10.27,9.1,16.8,12.1,6.53,3,13.87,4.5,22,4.5Z"/><path d="m2187.43,372.1h25.2l78,116.4h.4v-116.4h19.2v141.6h-24.4l-78.8-116.4h-.4v116.4h-19.2v-141.6Z"/><path d="m967.64,612.1h19.2v58.8h73.4v-58.8h19.2v141.6h-19.2v-64.8h-73.4v64.8h-19.2v-141.6Z"/><path d="m1220.84,757.3c-10.8,0-20.73-1.9-29.8-5.7-9.07-3.8-16.83-9.03-23.3-15.7-6.47-6.67-11.53-14.53-15.2-23.6-3.67-9.07-5.5-18.87-5.5-29.4s1.83-20.33,5.5-29.4c3.67-9.07,8.73-16.93,15.2-23.6,6.47-6.67,14.23-11.9,23.3-15.7,9.07-3.8,19-5.7,29.8-5.7s20.73,1.9,29.8,5.7c9.07,3.8,16.83,9.03,23.3,15.7,6.47,6.67,11.53,14.53,15.2,23.6,3.67,9.07,5.5,18.87,5.5,29.4s-1.83,20.33-5.5,29.4c-3.67,9.07-8.73,16.93-15.2,23.6-6.47,6.67-14.23,11.9-23.3,15.7-9.07,3.8-19,5.7-29.8,5.7Zm0-18c8.13,0,15.47-1.5,22-4.5,6.53-3,12.13-7.03,16.8-12.1,4.67-5.07,8.27-11.03,10.8-17.9,2.53-6.87,3.8-14.17,3.8-21.9s-1.27-15.03-3.8-21.9c-2.53-6.87-6.13-12.83-10.8-17.9-4.67-5.07-10.27-9.1-16.8-12.1-6.53-3-13.87-4.5-22-4.5s-15.47,1.5-22,4.5c-6.53,3-12.13,7.03-16.8,12.1-4.67,5.07-8.27,11.03-10.8,17.9-2.53,6.87-3.8,14.17-3.8,21.9s1.27,15.03,3.8,21.9c2.53,6.87,6.13,12.83,10.8,17.9,4.67,5.07,10.27,9.1,16.8,12.1,6.53,3,13.87,4.5,22,4.5Z"/><path d="m1378.84,612.1v86.8c0,4.4.6,8.97,1.8,13.7,1.2,4.73,3.2,9.1,6,13.1,2.8,4,6.47,7.27,11,9.8,4.53,2.53,10.13,3.8,16.8,3.8s12.27-1.27,16.8-3.8c4.53-2.53,8.2-5.8,11-9.8,2.8-4,4.8-8.37,6-13.1,1.2-4.73,1.8-9.3,1.8-13.7v-86.8h19.2v89.8c0,8.27-1.4,15.77-4.2,22.5-2.8,6.73-6.67,12.57-11.6,17.5-4.93,4.93-10.73,8.73-17.4,11.4-6.67,2.67-13.87,4-21.6,4s-14.93-1.33-21.6-4c-6.67-2.67-12.47-6.46-17.4-11.4-4.93-4.93-8.8-10.77-11.6-17.5-2.8-6.73-4.2-14.23-4.2-22.5v-89.8h19.2Z"/><path d="m1547.24,724.1c3.47,5.2,7.9,9.03,13.3,11.5,5.4,2.47,10.97,3.7,16.7,3.7,3.2,0,6.47-.5,9.8-1.5,3.33-1,6.37-2.5,9.1-4.5,2.73-2,4.97-4.46,6.7-7.4,1.73-2.93,2.6-6.33,2.6-10.2,0-5.47-1.73-9.63-5.2-12.5-3.47-2.87-7.77-5.27-12.9-7.2-5.13-1.93-10.73-3.8-16.8-5.6-6.07-1.8-11.67-4.3-16.8-7.5-5.13-3.2-9.43-7.5-12.9-12.9-3.47-5.4-5.2-12.7-5.2-21.9,0-4.13.9-8.53,2.7-13.2,1.8-4.67,4.63-8.93,8.5-12.8,3.87-3.87,8.83-7.1,14.9-9.7,6.07-2.6,13.37-3.9,21.9-3.9,7.73,0,15.13,1.07,22.2,3.2,7.07,2.13,13.27,6.47,18.6,13l-15.6,14.2c-2.4-3.73-5.8-6.73-10.2-9-4.4-2.27-9.4-3.4-15-3.4s-9.77.7-13.3,2.1c-3.53,1.4-6.37,3.2-8.5,5.4-2.13,2.2-3.63,4.57-4.5,7.1-.87,2.53-1.3,4.87-1.3,7,0,6,1.73,10.6,5.2,13.8,3.47,3.2,7.77,5.8,12.9,7.8,5.13,2,10.73,3.8,16.8,5.4,6.07,1.6,11.67,3.83,16.8,6.7,5.13,2.87,9.43,6.73,12.9,11.6,3.47,4.87,5.2,11.57,5.2,20.1,0,6.8-1.3,12.93-3.9,18.4-2.6,5.47-6.1,10.07-10.5,13.8-4.4,3.73-9.6,6.6-15.6,8.6s-12.4,3-19.2,3c-9.07,0-17.67-1.6-25.8-4.8-8.13-3.2-14.6-8.13-19.4-14.8l15.8-13.6Z"/><path d="m1694.24,612.1h91.4v18h-72.2v42.2h67.2v18h-67.2v45.4h75.8v18h-95v-141.6Z"/></g></svg>
